STARTFONT 2.1
COMMENT Recovered from arc.ast's:SMT10 AST (MIT CADR AST source recovered from ARC!!!)
FONT MIT-CADR-SMT10
SIZE 10 72 72
FONTBOUNDINGBOX 16 10 0 -2
STARTPROPERTIES 2
FONT_ASCENT 8
FONT_DESCENT 2
ENDPROPERTIES
CHARS 118
STARTCHAR C0001
ENCODING -1 1
SWIDTH 1000 0
DWIDTH 10 0
BBX 16 10 0 -2
BITMAP
0C00
1800
3000
7C00
0000
7C00
0000
0000
0000
0000
ENDCHAR
STARTCHAR C0003
ENCODING -1 3
SWIDTH 600 0
DWIDTH 6 0
BBX 16 10 0 -2
BITMAP
0000
3000
4800
3000
0000
3000
4800
3000
0000
0000
ENDCHAR
STARTCHAR C0004
ENCODING -1 4
SWIDTH 1600 0
DWIDTH 16 0
BBX 16 10 0 -2
BITMAP
0000
0000
0000
0000
0000
0000
0000
0000
0000
0000
ENDCHAR
STARTCHAR C0005
ENCODING -1 5
SWIDTH 800 0
DWIDTH 8 0
BBX 16 10 0 -2
BITMAP
0000
7E00
6600
4200
5A00
5A00
4200
6600
7E00
0000
ENDCHAR
STARTCHAR C0006
ENCODING -1 6
SWIDTH 800 0
DWIDTH 8 0
BBX 16 10 0 -2
BITMAP
0000
3C00
6600
5E00
5600
5E00
6000
3E00
0000
0000
ENDCHAR
STARTCHAR C0007
ENCODING -1 7
SWIDTH 700 0
DWIDTH 7 0
BBX 16 10 0 -2
BITMAP
0000
0000
0000
3800
3800
3800
0000
0000
0000
0000
ENDCHAR
STARTCHAR C000B
ENCODING -1 11
SWIDTH 900 0
DWIDTH 9 0
BBX 16 10 0 -2
BITMAP
1C00
2200
2200
3600
1400
3600
2200
6300
4100
7F00
ENDCHAR
STARTCHAR C000E
ENCODING -1 14
SWIDTH 800 0
DWIDTH 8 0
BBX 16 10 0 -2
BITMAP
0000
0000
0C00
7E00
1800
7E00
3000
0000
0000
0000
ENDCHAR
STARTCHAR C000F
ENCODING -1 15
SWIDTH 700 0
DWIDTH 7 0
BBX 16 10 0 -2
BITMAP
0000
0000
6C00
6C00
6C00
0000
0000
0000
0000
0000
ENDCHAR
STARTCHAR C0010
ENCODING -1 16
SWIDTH 900 0
DWIDTH 9 0
BBX 16 10 0 -2
BITMAP
0180
0200
0600
1600
FE00
1600
0600
0200
0180
0000
ENDCHAR
STARTCHAR C0011
ENCODING -1 17
SWIDTH 300 0
DWIDTH 3 0
BBX 16 10 0 -2
BITMAP
0000
4000
4000
4000
4000
4000
0000
4000
4000
0000
ENDCHAR
STARTCHAR C0012
ENCODING -1 18
SWIDTH 700 0
DWIDTH 7 0
BBX 16 10 0 -2
BITMAP
6000
3000
1800
7C00
0000
7C00
0000
0000
0000
0000
ENDCHAR
STARTCHAR C0013
ENCODING -1 19
SWIDTH 1200 0
DWIDTH 12 0
BBX 16 10 0 -2
BITMAP
0000
0000
C000
DC00
7200
9C00
2600
1C00
0000
0000
ENDCHAR
STARTCHAR C0014
ENCODING -1 20
SWIDTH 1100 0
DWIDTH 11 0
BBX 16 10 0 -2
BITMAP
1F00
3F80
3180
3180
3180
3180
7FC0
EAE0
D560
7FC0
ENDCHAR
STARTCHAR C0015
ENCODING -1 21
SWIDTH 500 0
DWIDTH 5 0
BBX 16 10 0 -2
BITMAP
0000
0000
7800
7800
0000
0000
0000
0000
0000
0000
ENDCHAR
STARTCHAR C0016
ENCODING -1 22
SWIDTH 600 0
DWIDTH 6 0
BBX 16 10 0 -2
BITMAP
0000
6400
9C00
7800
3000
7800
E400
9800
0000
0000
ENDCHAR
STARTCHAR C0017
ENCODING -1 23
SWIDTH 900 0
DWIDTH 9 0
BBX 16 10 0 -2
BITMAP
0000
0000
0000
6300
3600
1C00
0800
0000
0000
0000
ENDCHAR
STARTCHAR C0019
ENCODING -1 25
SWIDTH 1100 0
DWIDTH 11 0
BBX 16 10 0 -2
BITMAP
0000
0000
E100
7F80
3FC0
7F80
E100
0000
0000
0000
ENDCHAR
STARTCHAR C001B
ENCODING -1 27
SWIDTH 600 0
DWIDTH 6 0
BBX 16 10 0 -2
BITMAP
3000
7800
B400
B000
7800
3400
B400
7800
3000
3000
ENDCHAR
STARTCHAR C001C
ENCODING -1 28
SWIDTH 800 0
DWIDTH 8 0
BBX 16 10 0 -2
BITMAP
0000
0000
3000
6800
3000
7E00
6C00
3E00
0000
0000
ENDCHAR
STARTCHAR C001D
ENCODING -1 29
SWIDTH 1600 0
DWIDTH 16 0
BBX 16 10 0 -2
BITMAP
0380
0640
0600
0380
06C0
06C0
0380
00C0
04C0
0380
ENDCHAR
STARTCHAR C001E
ENCODING -1 30
SWIDTH 600 0
DWIDTH 6 0
BBX 16 10 0 -2
BITMAP
0000
6000
6000
6000
6000
6000
0000
6000
6000
0000
ENDCHAR
STARTCHAR C001F
ENCODING -1 31
SWIDTH 1600 0
DWIDTH 16 0
BBX 16 10 0 -2
BITMAP
FFFC
FFFC
FFFC
FFFC
FFFC
FFFC
FFFC
FFFC
FFFC
FFFC
ENDCHAR
STARTCHAR C0020
ENCODING -1 32
SWIDTH 300 0
DWIDTH 3 0
BBX 16 10 0 -2
BITMAP
0000
0000
0000
0000
0000
0000
0000
0000
0000
0000
ENDCHAR
STARTCHAR C0021
ENCODING -1 33
SWIDTH 800 0
DWIDTH 8 0
BBX 16 10 0 -2
BITMAP
1000
3800
7C00
EE00
2800
2800
2800
2800
2800
0000
ENDCHAR
STARTCHAR C0022
ENCODING -1 34
SWIDTH 1400 0
DWIDTH 14 0
BBX 16 10 0 -2
BITMAP
3F00
40FC
9D84
95F8
A520
CFC0
7980
3F00
0000
0000
ENDCHAR
STARTCHAR C0023
ENCODING -1 35
SWIDTH 900 0
DWIDTH 9 0
BBX 16 10 0 -2
BITMAP
0000
0000
3600
7F00
3600
7F00
3600
0000
0000
0000
ENDCHAR
STARTCHAR C0024
ENCODING -1 36
SWIDTH 900 0
DWIDTH 9 0
BBX 16 10 0 -2
BITMAP
3600
6300
C180
C180
C180
C180
C180
C180
6300
3600
ENDCHAR
STARTCHAR C0025
ENCODING -1 37
SWIDTH 800 0
DWIDTH 8 0
BBX 16 10 0 -2
BITMAP
0000
1800
3000
7800
DC00
DC00
FC00
7800
3000
1800
ENDCHAR
STARTCHAR C0026
ENCODING -1 38
SWIDTH 100 0
DWIDTH 1 0
BBX 16 10 0 -2
BITMAP
3F00
6180
C0C0
8040
8040
8040
8040
C0C0
6180
3F00
ENDCHAR
STARTCHAR C0027
ENCODING -1 39
SWIDTH 500 0
DWIDTH 5 0
BBX 16 10 0 -2
BITMAP
3000
3000
3000
0000
0000
0000
0000
0000
0000
0000
ENDCHAR
STARTCHAR C0028
ENCODING -1 40
SWIDTH 600 0
DWIDTH 6 0
BBX 16 10 0 -2
BITMAP
1800
3000
6000
6000
6000
6000
6000
6000
3000
1800
ENDCHAR
STARTCHAR C0029
ENCODING -1 41
SWIDTH 600 0
DWIDTH 6 0
BBX 16 10 0 -2
BITMAP
6000
3000
1800
1800
1800
1800
1800
1800
3000
6000
ENDCHAR
STARTCHAR C002A
ENCODING -1 42
SWIDTH 800 0
DWIDTH 8 0
BBX 16 10 0 -2
BITMAP
0000
0000
1800
7E00
3C00
7E00
1800
0000
0000
0000
ENDCHAR
STARTCHAR C002B
ENCODING -1 43
SWIDTH 800 0
DWIDTH 8 0
BBX 16 10 0 -2
BITMAP
0000
0000
1800
1800
7E00
1800
1800
0000
0000
0000
ENDCHAR
STARTCHAR C002C
ENCODING -1 44
SWIDTH 500 0
DWIDTH 5 0
BBX 16 10 0 -2
BITMAP
0000
0000
0000
0000
0000
0000
7000
3000
3000
6000
ENDCHAR
STARTCHAR C002D
ENCODING -1 45
SWIDTH 600 0
DWIDTH 6 0
BBX 16 10 0 -2
BITMAP
0000
0000
0000
0000
7800
7800
0000
0000
0000
0000
ENDCHAR
STARTCHAR C002E
ENCODING -1 46
SWIDTH 400 0
DWIDTH 4 0
BBX 16 10 0 -2
BITMAP
0000
0000
0000
0000
0000
0000
6000
6000
0000
0000
ENDCHAR
STARTCHAR C002F
ENCODING -1 47
SWIDTH 800 0
DWIDTH 8 0
BBX 16 10 0 -2
BITMAP
0600
0600
0C00
0C00
1800
1800
3000
3000
6000
6000
ENDCHAR
STARTCHAR C0030
ENCODING -1 48
SWIDTH 700 0
DWIDTH 7 0
BBX 16 10 0 -2
BITMAP
0400
3C00
7E00
D600
E600
C600
CC00
7800
0000
0000
ENDCHAR
STARTCHAR C0031
ENCODING -1 49
SWIDTH 500 0
DWIDTH 5 0
BBX 16 10 0 -2
BITMAP
0000
1000
3000
7000
3000
6000
6000
F000
0000
0000
ENDCHAR
STARTCHAR C0032
ENCODING -1 50
SWIDTH 700 0
DWIDTH 7 0
BBX 16 10 0 -2
BITMAP
0000
1C00
3600
2600
0C00
3000
6400
FC00
0000
0000
ENDCHAR
STARTCHAR C0033
ENCODING -1 51
SWIDTH 700 0
DWIDTH 7 0
BBX 16 10 0 -2
BITMAP
0000
3E00
6600
0C00
3800
8C00
CC00
7800
0000
0000
ENDCHAR
STARTCHAR C0034
ENCODING -1 52
SWIDTH 700 0
DWIDTH 7 0
BBX 16 10 0 -2
BITMAP
0000
0400
0C00
1C00
2C00
4800
FE00
1800
0000
0000
ENDCHAR
STARTCHAR C0035
ENCODING -1 53
SWIDTH 600 0
DWIDTH 6 0
BBX 16 10 0 -2
BITMAP
0000
3E00
3C00
6000
7800
8C00
CC00
7800
0000
0000
ENDCHAR
STARTCHAR C0036
ENCODING -1 54
SWIDTH 700 0
DWIDTH 7 0
BBX 16 10 0 -2
BITMAP
0000
1E00
3600
7000
7C00
CC00
CC00
7800
0000
0000
ENDCHAR
STARTCHAR C0037
ENCODING -1 55
SWIDTH 700 0
DWIDTH 7 0
BBX 16 10 0 -2
BITMAP
0000
7E00
FE00
0C00
1800
3000
2000
6000
0000
0000
ENDCHAR
STARTCHAR C0038
ENCODING -1 56
SWIDTH 700 0
DWIDTH 7 0
BBX 16 10 0 -2
BITMAP
0000
3800
6C00
6C00
7800
CC00
CC00
7800
0000
0000
ENDCHAR
STARTCHAR C0039
ENCODING -1 57
SWIDTH 600 0
DWIDTH 6 0
BBX 16 10 0 -2
BITMAP
0000
7800
CC00
CC00
7C00
0C00
D800
F000
0000
0000
ENDCHAR
STARTCHAR C003A
ENCODING -1 58
SWIDTH 500 0
DWIDTH 5 0
BBX 16 10 0 -2
BITMAP
0000
0000
0000
3000
3000
0000
3000
3000
0000
0000
ENDCHAR
STARTCHAR C003B
ENCODING -1 59
SWIDTH 500 0
DWIDTH 5 0
BBX 16 10 0 -2
BITMAP
0000
0000
0000
3000
3000
0000
7000
3000
6000
0000
ENDCHAR
STARTCHAR C003C
ENCODING -1 60
SWIDTH 600 0
DWIDTH 6 0
BBX 16 10 0 -2
BITMAP
0000
0000
1800
3000
6000
3000
1800
0000
0000
0000
ENDCHAR
STARTCHAR C003D
ENCODING -1 61
SWIDTH 600 0
DWIDTH 6 0
BBX 16 10 0 -2
BITMAP
0000
0000
0000
7800
0000
7800
0000
0000
0000
0000
ENDCHAR
STARTCHAR C003E
ENCODING -1 62
SWIDTH 600 0
DWIDTH 6 0
BBX 16 10 0 -2
BITMAP
0000
0000
6000
3000
1800
3000
6000
0000
0000
0000
ENDCHAR
STARTCHAR C003F
ENCODING -1 63
SWIDTH 1000 0
DWIDTH 10 0
BBX 16 10 0 -2
BITMAP
0000
0000
0000
0000
0000
0600
7F00
0380
7F00
0600
ENDCHAR
STARTCHAR C0040
ENCODING -1 64
SWIDTH 1100 0
DWIDTH 11 0
BBX 16 10 0 -2
BITMAP
1F00
3F80
4040
D160
C460
D160
CE60
60C0
3F80
1F00
ENDCHAR
STARTCHAR C0041
ENCODING -1 65
SWIDTH 800 0
DWIDTH 8 0
BBX 16 10 0 -2
BITMAP
0000
1800
1800
3C00
3400
7E00
6200
F700
0000
0000
ENDCHAR
STARTCHAR C0042
ENCODING -1 66
SWIDTH 800 0
DWIDTH 8 0
BBX 16 10 0 -2
BITMAP
0000
FC00
6600
6400
7E00
6300
6300
FE00
0000
0000
ENDCHAR
STARTCHAR C0043
ENCODING -1 67
SWIDTH 600 0
DWIDTH 6 0
BBX 16 10 0 -2
BITMAP
0000
7800
CC00
C400
C000
C000
CC00
7800
0000
0000
ENDCHAR
STARTCHAR C0044
ENCODING -1 68
SWIDTH 700 0
DWIDTH 7 0
BBX 16 10 0 -2
BITMAP
0000
FC00
6600
6600
6600
6600
6600
FC00
0000
0000
ENDCHAR
STARTCHAR C0045
ENCODING -1 69
SWIDTH 700 0
DWIDTH 7 0
BBX 16 10 0 -2
BITMAP
0000
FC00
6600
6800
7800
6800
6600
FC00
0000
0000
ENDCHAR
STARTCHAR C0046
ENCODING -1 70
SWIDTH 700 0
DWIDTH 7 0
BBX 16 10 0 -2
BITMAP
0000
FC00
6600
6800
7800
6800
6000
F000
0000
0000
ENDCHAR
STARTCHAR C0047
ENCODING -1 71
SWIDTH 700 0
DWIDTH 7 0
BBX 16 10 0 -2
BITMAP
0000
7C00
CC00
C600
C000
DE00
CC00
7800
0000
0000
ENDCHAR
STARTCHAR C0048
ENCODING -1 72
SWIDTH 800 0
DWIDTH 8 0
BBX 16 10 0 -2
BITMAP
0000
EF00
6600
6600
7E00
6600
6600
EF00
0000
0000
ENDCHAR
STARTCHAR C0049
ENCODING -1 73
SWIDTH 500 0
DWIDTH 5 0
BBX 16 10 0 -2
BITMAP
0000
7800
3000
3000
3000
3000
3000
7800
0000
0000
ENDCHAR
STARTCHAR C004A
ENCODING -1 74
SWIDTH 600 0
DWIDTH 6 0
BBX 16 10 0 -2
BITMAP
0000
3C00
1800
1800
1800
1800
D800
7000
0000
0000
ENDCHAR
STARTCHAR C004B
ENCODING -1 75
SWIDTH 800 0
DWIDTH 8 0
BBX 16 10 0 -2
BITMAP
0000
F700
6C00
7800
7800
6C00
6600
F700
0000
0000
ENDCHAR
STARTCHAR C004C
ENCODING -1 76
SWIDTH 700 0
DWIDTH 7 0
BBX 16 10 0 -2
BITMAP
0000
F000
6000
6000
6000
6000
6200
FC00
0000
0000
ENDCHAR
STARTCHAR C004D
ENCODING -1 77
SWIDTH 1100 0
DWIDTH 11 0
BBX 16 10 0 -2
BITMAP
0000
F1E0
71C0
7BC0
7FC0
6EC0
6EC0
F5E0
0000
0000
ENDCHAR
STARTCHAR C004E
ENCODING -1 78
SWIDTH 900 0
DWIDTH 9 0
BBX 16 10 0 -2
BITMAP
0000
F780
7300
7B00
6B00
6F00
6700
F780
0000
0000
ENDCHAR
STARTCHAR C004F
ENCODING -1 79
SWIDTH 700 0
DWIDTH 7 0
BBX 16 10 0 -2
BITMAP
0000
7C00
C600
C600
C600
C600
C600
7C00
0000
0000
ENDCHAR
STARTCHAR C0050
ENCODING -1 80
SWIDTH 700 0
DWIDTH 7 0
BBX 16 10 0 -2
BITMAP
0000
FC00
6600
6600
6600
7C00
6000
F000
0000
0000
ENDCHAR
STARTCHAR C0051
ENCODING -1 81
SWIDTH 600 0
DWIDTH 6 0
BBX 16 10 0 -2
BITMAP
0000
7800
C400
C400
C400
C400
D400
7800
0C00
0000
ENDCHAR
STARTCHAR C0052
ENCODING -1 82
SWIDTH 800 0
DWIDTH 8 0
BBX 16 10 0 -2
BITMAP
0000
FC00
6600
6600
6C00
7800
6600
F700
0000
0000
ENDCHAR
STARTCHAR C0053
ENCODING -1 83
SWIDTH 600 0
DWIDTH 6 0
BBX 16 10 0 -2
BITMAP
0000
7800
D800
E000
3800
8C00
DC00
F800
0000
0000
ENDCHAR
STARTCHAR C0054
ENCODING -1 84
SWIDTH 600 0
DWIDTH 6 0
BBX 16 10 0 -2
BITMAP
0000
FC00
B400
3000
3000
3000
3000
7800
0000
0000
ENDCHAR
STARTCHAR C0055
ENCODING -1 85
SWIDTH 800 0
DWIDTH 8 0
BBX 16 10 0 -2
BITMAP
0000
F700
6200
6200
6200
6200
6200
3C00
0000
0000
ENDCHAR
STARTCHAR C0056
ENCODING -1 86
SWIDTH 900 0
DWIDTH 9 0
BBX 16 10 0 -2
BITMAP
0000
F780
6300
3600
3600
1C00
1C00
0800
0000
0000
ENDCHAR
STARTCHAR C0057
ENCODING -1 87
SWIDTH 1300 0
DWIDTH 13 0
BBX 16 10 0 -2
BITMAP
0000
F778
6230
3260
3760
1DC0
1DC0
0880
0000
0000
ENDCHAR
STARTCHAR C0058
ENCODING -1 88
SWIDTH 800 0
DWIDTH 8 0
BBX 16 10 0 -2
BITMAP
0000
F700
6600
3C00
1800
3C00
6600
EF00
0000
0000
ENDCHAR
STARTCHAR C0059
ENCODING -1 89
SWIDTH 800 0
DWIDTH 8 0
BBX 16 10 0 -2
BITMAP
0000
F700
6600
3C00
1800
1800
1800
3C00
0000
0000
ENDCHAR
STARTCHAR C005A
ENCODING -1 90
SWIDTH 700 0
DWIDTH 7 0
BBX 16 10 0 -2
BITMAP
0000
FC00
FC00
9800
3000
6200
FE00
FC00
0000
0000
ENDCHAR
STARTCHAR C005B
ENCODING -1 91
SWIDTH 600 0
DWIDTH 6 0
BBX 16 10 0 -2
BITMAP
7800
6000
6000
6000
6000
6000
6000
6000
6000
7800
ENDCHAR
STARTCHAR C005C
ENCODING -1 92
SWIDTH 800 0
DWIDTH 8 0
BBX 16 10 0 -2
BITMAP
6000
6000
3000
3000
1800
1800
0C00
0C00
0600
0600
ENDCHAR
STARTCHAR C005D
ENCODING -1 93
SWIDTH 600 0
DWIDTH 6 0
BBX 16 10 0 -2
BITMAP
7800
1800
1800
1800
1800
1800
1800
1800
1800
7800
ENDCHAR
STARTCHAR C005E
ENCODING -1 94
SWIDTH 600 0
DWIDTH 6 0
BBX 16 10 0 -2
BITMAP
0000
3000
7800
B400
3000
3000
3000
3000
0000
0000
ENDCHAR
STARTCHAR C005F
ENCODING -1 95
SWIDTH 1000 0
DWIDTH 10 0
BBX 16 10 0 -2
BITMAP
0000
0000
1000
2000
7F80
7F80
2000
1000
0000
0000
ENDCHAR
STARTCHAR C0061
ENCODING -1 97
SWIDTH 600 0
DWIDTH 6 0
BBX 16 10 0 -2
BITMAP
0000
0000
0000
7000
5800
7800
D800
7C00
0000
0000
ENDCHAR
STARTCHAR C0062
ENCODING -1 98
SWIDTH 600 0
DWIDTH 6 0
BBX 16 10 0 -2
BITMAP
6000
E000
6000
7800
6C00
6C00
6C00
F800
0000
0000
ENDCHAR
STARTCHAR C0063
ENCODING -1 99
SWIDTH 500 0
DWIDTH 5 0
BBX 16 10 0 -2
BITMAP
0000
0000
0000
7000
D800
C000
D800
7000
0000
0000
ENDCHAR
STARTCHAR C0064
ENCODING -1 100
SWIDTH 600 0
DWIDTH 6 0
BBX 16 10 0 -2
BITMAP
1800
3800
1800
7800
D800
D800
D800
7C00
0000
0000
ENDCHAR
STARTCHAR C0065
ENCODING -1 101
SWIDTH 500 0
DWIDTH 5 0
BBX 16 10 0 -2
BITMAP
0000
0000
0000
7000
D800
F000
C800
7000
0000
0000
ENDCHAR
STARTCHAR C0066
ENCODING -1 102
SWIDTH 500 0
DWIDTH 5 0
BBX 16 10 0 -2
BITMAP
3800
6800
6000
F800
6000
6000
6000
F000
0000
0000
ENDCHAR
STARTCHAR C0067
ENCODING -1 103
SWIDTH 600 0
DWIDTH 6 0
BBX 16 10 0 -2
BITMAP
0000
0000
0000
7400
D800
D800
7000
C800
CC00
7800
ENDCHAR
STARTCHAR C0068
ENCODING -1 104
SWIDTH 800 0
DWIDTH 8 0
BBX 16 10 0 -2
BITMAP
6000
E000
6000
7C00
6600
6600
6600
F700
0000
0000
ENDCHAR
STARTCHAR C0069
ENCODING -1 105
SWIDTH 400 0
DWIDTH 4 0
BBX 16 10 0 -2
BITMAP
6000
6000
0000
6000
E000
6000
6000
F000
0000
0000
ENDCHAR
STARTCHAR C006A
ENCODING -1 106
SWIDTH 400 0
DWIDTH 4 0
BBX 16 10 0 -2
BITMAP
3000
3000
0000
3000
7000
3000
3000
3000
B000
E000
ENDCHAR
STARTCHAR C006B
ENCODING -1 107
SWIDTH 800 0
DWIDTH 8 0
BBX 16 10 0 -2
BITMAP
6000
E000
6C00
7800
7000
7800
6C00
F700
0000
0000
ENDCHAR
STARTCHAR C006C
ENCODING -1 108
SWIDTH 400 0
DWIDTH 4 0
BBX 16 10 0 -2
BITMAP
6000
E000
6000
6000
6000
6000
6000
F000
0000
0000
ENDCHAR
STARTCHAR C006D
ENCODING -1 109
SWIDTH 1000 0
DWIDTH 10 0
BBX 16 10 0 -2
BITMAP
0000
0000
0000
F700
6D80
6D80
6D80
FFC0
0000
0000
ENDCHAR
STARTCHAR C006E
ENCODING -1 110
SWIDTH 700 0
DWIDTH 7 0
BBX 16 10 0 -2
BITMAP
0000
0000
0000
F800
6C00
6C00
6C00
FE00
0000
0000
ENDCHAR
STARTCHAR C006F
ENCODING -1 111
SWIDTH 500 0
DWIDTH 5 0
BBX 16 10 0 -2
BITMAP
0000
0000
0000
7000
D800
D800
D800
7000
0000
0000
ENDCHAR
STARTCHAR C0070
ENCODING -1 112
SWIDTH 600 0
DWIDTH 6 0
BBX 16 10 0 -2
BITMAP
0000
0000
0000
7800
EC00
6C00
6C00
7800
6000
F000
ENDCHAR
STARTCHAR C0071
ENCODING -1 113
SWIDTH 600 0
DWIDTH 6 0
BBX 16 10 0 -2
BITMAP
0000
0000
0000
7800
DC00
D800
D800
7800
1800
3C00
ENDCHAR
STARTCHAR C0072
ENCODING -1 114
SWIDTH 600 0
DWIDTH 6 0
BBX 16 10 0 -2
BITMAP
0000
0000
0000
7800
EC00
6000
6000
F000
0000
0000
ENDCHAR
STARTCHAR C0073
ENCODING -1 115
SWIDTH 500 0
DWIDTH 5 0
BBX 16 10 0 -2
BITMAP
0000
0000
0000
7000
C800
7000
9800
7000
0000
0000
ENDCHAR
STARTCHAR C0074
ENCODING -1 116
SWIDTH 500 0
DWIDTH 5 0
BBX 16 10 0 -2
BITMAP
0000
2000
6000
F000
6000
6000
6800
3000
0000
0000
ENDCHAR
STARTCHAR C0075
ENCODING -1 117
SWIDTH 700 0
DWIDTH 7 0
BBX 16 10 0 -2
BITMAP
0000
0000
0000
FE00
6C00
6C00
6C00
3E00
0000
0000
ENDCHAR
STARTCHAR C0076
ENCODING -1 118
SWIDTH 700 0
DWIDTH 7 0
BBX 16 10 0 -2
BITMAP
0000
0000
0000
EE00
6C00
3800
3800
1000
0000
0000
ENDCHAR
STARTCHAR C0077
ENCODING -1 119
SWIDTH 900 0
DWIDTH 9 0
BBX 16 10 0 -2
BITMAP
0000
0000
0000
EB80
6B00
3E00
3E00
1400
0000
0000
ENDCHAR
STARTCHAR C0078
ENCODING -1 120
SWIDTH 700 0
DWIDTH 7 0
BBX 16 10 0 -2
BITMAP
0000
0000
0000
EE00
6C00
3800
6C00
EE00
0000
0000
ENDCHAR
STARTCHAR C0079
ENCODING -1 121
SWIDTH 700 0
DWIDTH 7 0
BBX 16 10 0 -2
BITMAP
0000
0000
0000
EE00
6C00
3800
3800
1000
D000
6000
ENDCHAR
STARTCHAR C007A
ENCODING -1 122
SWIDTH 700 0
DWIDTH 7 0
BBX 16 10 0 -2
BITMAP
0000
0000
0000
7C00
D800
3000
6C00
F800
0000
0000
ENDCHAR
STARTCHAR C007B
ENCODING -1 123
SWIDTH 800 0
DWIDTH 8 0
BBX 16 10 0 -2
BITMAP
0000
0E00
1800
1800
1800
7000
1800
1800
1800
0E00
ENDCHAR
STARTCHAR C007C
ENCODING -1 124
SWIDTH 400 0
DWIDTH 4 0
BBX 16 10 0 -2
BITMAP
6000
6000
6000
6000
6000
6000
6000
6000
6000
6000
ENDCHAR
STARTCHAR C007D
ENCODING -1 125
SWIDTH 800 0
DWIDTH 8 0
BBX 16 10 0 -2
BITMAP
0000
7000
1800
1800
1800
0E00
1800
1800
1800
7000
ENDCHAR
STARTCHAR C007E
ENCODING -1 126
SWIDTH 700 0
DWIDTH 7 0
BBX 16 10 0 -2
BITMAP
0000
3800
4C00
6C00
1800
3000
0000
3000
0000
0000
ENDCHAR
STARTCHAR C007F
ENCODING -1 127
SWIDTH 1600 0
DWIDTH 16 0
BBX 16 10 0 -2
BITMAP
0007
000E
009C
01B8
03F0
16E0
3CC0
7880
D000
8000
ENDCHAR
ENDFONT
